<mxfile host="app.diagrams.net" modified="2023-02-23T10:28:45.433Z" agent="5.0 (Macintosh; Intel Mac OS X 10_15_7) AppleWebKit/537.36 (KHTML, like Gecko) Chrome/110.0.0.0 Safari/537.36" etag="Xt4uS94vFA3_WUIGRoVv" version="20.8.23" type="github">
  <diagram name="Page-1" id="vd_3fTeyYMcWCq_SUtv8">
    <mxGraphModel dx="867" dy="589" grid="1" gridSize="10" guides="1" tooltips="1" connect="1" arrows="1" fold="1" page="1" pageScale="1" pageWidth="850" pageHeight="1100" math="0" shadow="0">
      <root>
        <mxCell id="0" />
        <mxCell id="1" parent="0" />
        <mxCell id="uEPTChsxkMGTpGK2YMd2-1" value="End" style="ellipse;whiteSpace=wrap;html=1;aspect=fixed;fillColor=#f8cecc;strokeColor=#b85450;fontStyle=1;strokeWidth=2;" parent="1" vertex="1">
          <mxGeometry x="115" y="620" width="70" height="70" as="geometry" />
        </mxCell>
        <mxCell id="VMWoeDO-qQuQW-Q6FBoq-10" value="" style="edgeStyle=orthogonalEdgeStyle;rounded=0;orthogonalLoop=1;jettySize=auto;html=1;" parent="1" target="VMWoeDO-qQuQW-Q6FBoq-9" edge="1">
          <mxGeometry relative="1" as="geometry">
            <mxPoint x="150.0000000000001" y="159.9999999999999" as="sourcePoint" />
          </mxGeometry>
        </mxCell>
        <mxCell id="VMWoeDO-qQuQW-Q6FBoq-7" value="" style="edgeStyle=orthogonalEdgeStyle;rounded=0;orthogonalLoop=1;jettySize=auto;html=1;" parent="1" source="VMWoeDO-qQuQW-Q6FBoq-1" target="VMWoeDO-qQuQW-Q6FBoq-6" edge="1">
          <mxGeometry relative="1" as="geometry" />
        </mxCell>
        <mxCell id="VMWoeDO-qQuQW-Q6FBoq-14" value="" style="edgeStyle=orthogonalEdgeStyle;rounded=0;orthogonalLoop=1;jettySize=auto;html=1;" parent="1" source="VMWoeDO-qQuQW-Q6FBoq-1" target="VMWoeDO-qQuQW-Q6FBoq-13" edge="1">
          <mxGeometry relative="1" as="geometry" />
        </mxCell>
        <mxCell id="VMWoeDO-qQuQW-Q6FBoq-1" value="client lebih&lt;br&gt;dari 1&lt;br&gt;orang?" style="rhombus;whiteSpace=wrap;html=1;fillColor=#dae8fc;strokeColor=#6c8ebf;" parent="1" vertex="1">
          <mxGeometry x="105" y="290" width="90" height="90" as="geometry" />
        </mxCell>
        <mxCell id="VMWoeDO-qQuQW-Q6FBoq-17" value="" style="edgeStyle=orthogonalEdgeStyle;rounded=0;orthogonalLoop=1;jettySize=auto;html=1;" parent="1" source="VMWoeDO-qQuQW-Q6FBoq-3" target="VMWoeDO-qQuQW-Q6FBoq-13" edge="1">
          <mxGeometry relative="1" as="geometry" />
        </mxCell>
        <mxCell id="VMWoeDO-qQuQW-Q6FBoq-3" value="Staff memilih nama client yang datanya ingin diinput" style="rounded=1;whiteSpace=wrap;html=1;fontSize=12;glass=0;strokeWidth=1;shadow=0;" parent="1" vertex="1">
          <mxGeometry x="300" y="420" width="145" height="70" as="geometry" />
        </mxCell>
        <mxCell id="VMWoeDO-qQuQW-Q6FBoq-5" value="ya" style="text;html=1;strokeColor=none;fillColor=none;align=center;verticalAlign=middle;whiteSpace=wrap;rounded=0;" parent="1" vertex="1">
          <mxGeometry x="190" y="305" width="60" height="30" as="geometry" />
        </mxCell>
        <mxCell id="VMWoeDO-qQuQW-Q6FBoq-8" value="" style="edgeStyle=orthogonalEdgeStyle;rounded=0;orthogonalLoop=1;jettySize=auto;html=1;" parent="1" source="VMWoeDO-qQuQW-Q6FBoq-6" target="VMWoeDO-qQuQW-Q6FBoq-3" edge="1">
          <mxGeometry relative="1" as="geometry" />
        </mxCell>
        <mxCell id="VMWoeDO-qQuQW-Q6FBoq-6" value="pilihan nama client yang&lt;br&gt;latihan di watu tersebut" style="shape=parallelogram;perimeter=parallelogramPerimeter;whiteSpace=wrap;html=1;fixedSize=1;strokeWidth=1;fillColor=#fff2cc;strokeColor=#d6b656;" parent="1" vertex="1">
          <mxGeometry x="280" y="310" width="185" height="50" as="geometry" />
        </mxCell>
        <mxCell id="VMWoeDO-qQuQW-Q6FBoq-11" value="" style="edgeStyle=orthogonalEdgeStyle;rounded=0;orthogonalLoop=1;jettySize=auto;html=1;" parent="1" source="VMWoeDO-qQuQW-Q6FBoq-9" target="VMWoeDO-qQuQW-Q6FBoq-1" edge="1">
          <mxGeometry relative="1" as="geometry" />
        </mxCell>
        <mxCell id="VMWoeDO-qQuQW-Q6FBoq-9" value="Staff ingin mengupload foto progress&lt;br&gt;(ada button upload)" style="rounded=1;whiteSpace=wrap;html=1;fontSize=12;glass=0;strokeWidth=1;shadow=0;" parent="1" vertex="1">
          <mxGeometry x="77.5" y="190" width="145" height="70" as="geometry" />
        </mxCell>
        <mxCell id="VMWoeDO-qQuQW-Q6FBoq-16" value="" style="edgeStyle=orthogonalEdgeStyle;rounded=0;orthogonalLoop=1;jettySize=auto;html=1;" parent="1" source="VMWoeDO-qQuQW-Q6FBoq-12" target="uEPTChsxkMGTpGK2YMd2-1" edge="1">
          <mxGeometry relative="1" as="geometry" />
        </mxCell>
        <mxCell id="VMWoeDO-qQuQW-Q6FBoq-12" value="Staff mengupload foto progress sesuai&lt;br&gt;kategori foto" style="rounded=1;whiteSpace=wrap;html=1;fontSize=12;glass=0;strokeWidth=1;shadow=0;" parent="1" vertex="1">
          <mxGeometry x="77.5" y="520" width="145" height="70" as="geometry" />
        </mxCell>
        <mxCell id="VMWoeDO-qQuQW-Q6FBoq-15" value="" style="edgeStyle=orthogonalEdgeStyle;rounded=0;orthogonalLoop=1;jettySize=auto;html=1;" parent="1" source="VMWoeDO-qQuQW-Q6FBoq-13" target="VMWoeDO-qQuQW-Q6FBoq-12" edge="1">
          <mxGeometry relative="1" as="geometry" />
        </mxCell>
        <mxCell id="VMWoeDO-qQuQW-Q6FBoq-13" value="tampilan untuk upload foto" style="shape=parallelogram;perimeter=parallelogramPerimeter;whiteSpace=wrap;html=1;fixedSize=1;strokeWidth=1;fillColor=#fff2cc;strokeColor=#d6b656;" parent="1" vertex="1">
          <mxGeometry x="57.5" y="430" width="185" height="50" as="geometry" />
        </mxCell>
        <mxCell id="VMWoeDO-qQuQW-Q6FBoq-18" value="tidak" style="text;html=1;strokeColor=none;fillColor=none;align=center;verticalAlign=middle;whiteSpace=wrap;rounded=0;" parent="1" vertex="1">
          <mxGeometry x="100" y="380" width="60" height="30" as="geometry" />
        </mxCell>
        <mxCell id="GtKJx6CDQjJy43zYFTCQ-1" value="staff melihat jadwal" style="ellipse;whiteSpace=wrap;html=1;fillColor=#d5e8d4;strokeColor=#82b366;strokeWidth=2;" parent="1" vertex="1">
          <mxGeometry x="90" y="80" width="120" height="80" as="geometry" />
        </mxCell>
      </root>
    </mxGraphModel>
  </diagram>
</mxfile>
